<?xml version="1.0" standalone="no"?>
<!DOCTYPE svg PUBLIC "-//W3C//DTD SVG 20010904//EN"
 "http://www.w3.org/TR/2001/REC-SVG-20010904/DTD/svg10.dtd">
<svg version="1.0" xmlns="http://www.w3.org/2000/svg"
 width="300.000000pt" height="169.000000pt" viewBox="0 0 300.000000 169.000000"
 preserveAspectRatio="xMidYMid meet">
<metadata>
Created by potrace 1.10, written by Peter Selinger 2001-2011
</metadata>
<g transform="translate(0.000000,169.000000) scale(0.100000,-0.100000)"
fill="#000000" stroke="none">
<path d="M2537 1523 c-36 -18 -32 -24 10 -15 21 5 30 11 25 19 -5 8 -14 7 -35
-4z"/>
<path d="M353 1390 c0 -84 1 -88 7 -38 4 31 4 73 0 95 -5 27 -7 10 -7 -57z"/>
<path d="M2038 1323 c-1 -16 -2 -39 -3 -53 -1 -14 -2 -87 -3 -162 -1 -76 -5
-138 -9 -138 -30 1 -32 18 -25 168 4 84 4 152 1 152 -4 0 -10 -69 -14 -154 -6
-143 -9 -155 -31 -179 -17 -19 -24 -38 -24 -66 0 -40 1 -40 25 -29 25 11 36
44 13 35 -7 -2 -12 -10 -10 -16 1 -6 -3 -11 -8 -11 -6 0 -8 11 -4 28 10 41 17
48 25 26 6 -16 8 -14 8 10 l1 28 122 -6 c129 -7 171 -16 75 -16 -32 0 -57 -4
-57 -10 0 -5 6 -7 14 -4 8 3 16 -2 19 -13 4 -14 5 -14 6 -2 1 12 10 15 39 13
28 -1 36 -6 34 -18 -2 -9 2 -16 8 -16 5 0 10 18 10 40 0 31 -3 38 -15 34 -8
-4 -21 -2 -28 4 -6 5 -29 8 -49 6 l-38 -4 0 100 c0 59 -4 100 -10 100 -6 0 -8
-38 -5 -100 5 -100 5 -101 -16 -90 -11 6 -27 9 -36 6 -13 -6 -14 15 -8 179 4
102 5 185 1 185 -3 0 -7 -12 -8 -27z"/>
<path d="M2735 1264 c-22 -8 -47 -13 -56 -11 -22 6 -40 -6 -43 -28 -2 -11 -9
-21 -17 -23 -11 -3 -11 -1 1 7 11 8 -5 11 -61 11 -42 0 -79 -3 -82 -7 -4 -3
-36 -5 -71 -4 -63 2 -64 2 -74 -28 -6 -17 -15 -31 -20 -31 -6 0 -18 -19 -28
-42 -10 -24 -20 -46 -22 -51 -2 -4 3 -4 12 -1 29 11 17 -15 -14 -31 -30 -16
-43 -42 -15 -31 11 4 15 -2 15 -24 0 -17 5 -30 11 -30 7 0 8 12 4 33 -6 31 -5
31 11 12 15 -19 16 -19 10 11 -5 22 -2 35 9 44 17 15 20 40 4 40 -8 0 -8 4 -2
13 6 6 13 24 17 40 4 15 13 27 22 27 13 0 15 -6 9 -27 -6 -26 -6 -27 13 -10
10 9 26 17 34 17 28 0 9 38 -21 43 -15 3 -10 4 14 4 23 0 46 2 52 6 19 12 22
-6 8 -41 -14 -33 -47 -52 -98 -57 -35 -3 -35 -4 -26 -35 7 -25 7 -25 8 -2 1
20 5 23 31 18 20 -3 30 0 30 8 0 16 60 19 60 3 0 -7 5 -4 11 6 6 9 8 26 4 36
-3 10 1 24 10 31 8 7 15 18 15 25 0 7 18 12 50 13 28 0 50 -3 50 -7 0 -15 -35
-39 -70 -48 -24 -6 -36 -16 -37 -29 -2 -15 -1 -16 3 -1 7 23 24 22 24 -3 0
-11 4 -20 9 -20 5 0 7 9 4 20 -5 20 3 24 39 21 9 -1 19 3 23 8 3 7 0 8 -9 5
-28 -11 -17 3 21 28 87 55 143 78 93 37 l-25 -20 33 16 c18 9 31 19 28 23 -2
4 4 8 14 8 10 0 16 -5 13 -12 -2 -6 2 -16 10 -23 23 -18 43 12 22 33 -26 26
-11 19 95 -40 97 -54 119 -60 107 -32 -6 17 -184 118 -206 117 -9 0 -34 -7
-56 -15z"/>
<path d="M332 1185 l2 -80 5 74 c5 62 9 75 26 82 17 6 15 7 -7 6 l-28 -1 2
-81z"/>
<path d="M1731 1145 c-2 -33 -4 -67 -5 -75 -2 -8 -3 -32 -4 -52 -2 -37 -21
-55 -23 -20 0 10 -3 12 -6 5 -2 -7 5 -25 16 -39 l21 -27 0 46 c0 25 3 47 8 49
4 2 4 41 1 88 -5 81 -5 82 -8 25z"/>
<path d="M623 1115 c0 -44 2 -61 4 -37 2 23 2 59 0 80 -2 20 -4 1 -4 -43z"/>
<path d="M5 1150 c4 -6 16 -8 27 -4 14 4 18 2 14 -5 -4 -6 -17 -12 -29 -12
-17 -1 -15 -3 8 -9 l30 -8 -30 -1 c-24 -1 -27 -3 -15 -12 11 -8 12 -12 3 -16
-18 -7 -18 -163 -1 -163 9 0 9 -3 0 -12 -16 -16 -15 -28 2 -28 8 0 16 -3 19
-7 2 -5 2 -2 1 4 -4 14 17 27 56 36 24 6 25 4 25 -39 0 -30 -4 -43 -12 -40 -7
3 -10 -1 -6 -10 4 -11 -5 -14 -40 -14 -40 0 -45 2 -40 20 3 11 0 20 -6 20 -15
0 -14 -40 2 -45 28 -9 147 -13 152 -4 4 5 -9 9 -27 10 -29 1 -30 2 -9 8 14 4
26 13 29 21 3 13 2 13 -7 0 -10 -13 -12 -13 -21 0 -15 23 -12 33 9 27 17 -4
19 0 18 29 -2 28 -6 34 -24 34 -20 0 -23 5 -23 38 0 48 -15 74 -25 43 -3 -11
-11 -21 -16 -21 -5 0 -9 -14 -9 -31 0 -24 -3 -30 -16 -25 -9 3 -20 6 -25 6 -5
0 -9 7 -9 16 0 11 6 14 20 9 11 -4 20 -2 20 4 0 6 -9 11 -20 11 -16 0 -20 6
-19 33 1 49 10 63 68 107 l53 40 -67 0 c-43 0 -64 -4 -60 -10z m95 -209 c0 -6
-7 -11 -15 -11 -9 0 -15 10 -15 26 0 23 2 24 15 10 8 -8 15 -19 15 -25z"/>
<path d="M2620 1139 c0 -19 1 -19 17 -3 16 15 17 15 24 -2 7 -17 8 -17 8 4 1
17 -5 22 -24 22 -19 0 -25 -5 -25 -21z"/>
<path d="M2694 1145 c-4 -9 -4 -19 0 -22 3 -4 6 -1 6 5 0 7 7 12 16 12 8 0 12
-4 9 -10 -3 -5 -1 -10 5 -10 18 0 7 34 -13 38 -9 2 -20 -4 -23 -13z"/>
<path d="M2798 1153 c-10 -2 -18 -8 -18 -13 0 -22 14 -40 31 -40 14 0 19 7 19
30 0 17 -3 29 -7 29 -5 -1 -16 -3 -25 -6z"/>
<path d="M2890 1129 c0 -24 4 -29 25 -29 20 0 25 5 25 24 0 17 -7 25 -25 28
-22 5 -25 2 -25 -23z"/>
<path d="M110 1130 c-13 -9 -13 -12 1 -23 9 -6 21 -22 28 -35 7 -12 16 -20 20
-17 5 2 12 -5 16 -18 11 -37 16 -105 7 -111 -10 -6 -2 -86 9 -86 5 0 9 -7 9
-15 0 -23 16 -18 17 5 1 11 -2 18 -8 15 -15 -10 -10 15 6 31 19 20 19 54 0 54
-22 0 -20 66 3 76 9 4 20 6 25 6 11 -3 9 96 -3 103 -5 3 -23 -1 -41 -10 -29
-15 -32 -15 -45 2 -7 10 -14 21 -14 26 0 10 -12 9 -30 -3z"/>
<path d="M1936 1084 c-10 -31 -16 -58 -14 -60 3 -2 12 21 22 52 10 31 16 58
14 60 -3 2 -12 -21 -22 -52z"/>
<path d="M2073 1065 c0 -38 2 -53 4 -32 2 20 2 52 0 70 -2 17 -4 1 -4 -38z"/>
<path d="M286 1070 c-17 -20 -26 -43 -26 -65 0 -18 -3 -40 -6 -49 -3 -9 -1
-16 5 -16 6 0 11 11 11 25 0 16 6 25 15 25 9 0 15 -9 15 -25 0 -19 5 -25 23
-25 13 0 17 3 11 8 -6 4 -15 22 -19 39 -5 27 -4 32 8 27 10 -3 17 2 20 13 3
10 5 -7 6 -36 1 -32 5 -51 10 -45 13 15 31 74 21 71 -5 -1 -23 17 -38 41 l-29
43 -27 -31z"/>
<path d="M56 1068 c-9 -33 -7 -68 3 -68 12 0 22 73 12 83 -5 5 -11 -2 -15 -15z"/>
<path d="M2957 1075 c-15 -8 -31 -15 -35 -16 -28 -7 -34 -12 -20 -20 21 -14
38 -10 38 7 0 9 5 12 12 8 7 -5 8 -3 3 6 -6 9 -4 12 6 8 8 -3 20 1 27 8 17 18
4 18 -31 -1z"/>
<path d="M2787 1053 c-4 -3 -7 -17 -7 -30 0 -23 -10 -27 -57 -23 -13 1 -23 -3
-23 -9 0 -10 15 -14 45 -14 6 0 30 12 53 26 28 18 40 32 36 42 -6 15 -35 20
-47 8z"/>
<path d="M2483 1043 c-18 -3 -23 -11 -22 -31 2 -24 2 -24 6 -4 2 12 9 22 15
22 6 0 8 -9 5 -20 -3 -11 -2 -18 3 -15 4 3 10 16 12 30 3 14 5 24 4 24 0 -1
-11 -4 -23 -6z"/>
<path d="M472 993 c3 -15 14 -18 68 -18 36 0 71 -4 78 -8 8 -6 12 -2 12 12 0
17 -7 21 -37 22 -21 0 -58 2 -81 5 -38 5 -43 3 -40 -13z"/>
<path d="M1051 993 c-10 -11 -25 -13 -60 -8 -43 7 -90 9 -152 6 -33 -1 -57
-45 -37 -68 10 -13 13 -13 19 4 6 13 8 10 8 -13 1 -19 7 -34 17 -38 8 -3 12
-11 8 -17 -4 -7 3 -6 17 2 13 7 28 12 32 11 5 -1 6 2 2 8 -3 5 -18 10 -32 10
-21 0 -24 4 -19 23 4 17 -1 27 -22 40 l-27 18 38 -3 c20 -2 37 -2 37 2 0 3 26
3 57 1 47 -3 53 -6 33 -12 -21 -7 -18 -8 15 -6 22 1 43 5 46 10 11 15 31 -4
26 -24 -3 -10 1 -26 9 -36 12 -16 13 -16 14 -1 0 9 -6 19 -12 21 -7 3 4 6 24
6 20 1 40 6 43 11 9 15 25 2 25 -21 0 -24 16 -25 29 0 9 15 7 20 -10 24 -11 3
-23 15 -26 26 -4 17 -13 21 -43 21 -21 0 -40 4 -42 9 -1 5 -9 2 -17 -6z"/>
<path d="M2990 1000 c0 -5 -6 -10 -14 -10 -8 0 -24 -9 -37 -21 -13 -11 -19
-19 -14 -16 53 21 75 33 75 44 0 7 -2 13 -5 13 -3 0 -5 -4 -5 -10z"/>
<path d="M438 978 c-17 -17 -17 -18 0 -18 15 -1 15 -2 -2 -12 -15 -8 -21 -8
-24 0 -2 7 -10 12 -18 12 -8 0 -11 -6 -7 -17 4 -11 3 -14 -5 -9 -7 4 -12 2
-12 -4 0 -7 8 -9 19 -5 11 3 22 1 26 -5 4 -6 -8 -10 -32 -10 -31 -1 -35 -3
-20 -11 9 -6 34 -9 55 -7 29 2 36 7 34 21 -2 10 2 24 8 31 6 8 7 22 3 33 -8
18 -9 18 -25 1z"/>
<path d="M640 980 c0 -25 20 -27 21 -2 0 14 2 14 7 2 5 -10 25 -16 65 -17 31
-1 57 1 57 6 0 20 -30 31 -87 31 -56 0 -63 -2 -63 -20z"/>
<path d="M1878 979 c-5 -14 -41 -18 -51 -5 -5 6 -6 -8 -3 -31 6 -40 5 -42 -24
-48 -17 -4 -30 -12 -30 -18 0 -6 -10 -1 -22 10 -19 18 -25 19 -35 8 -19 -20
-16 -27 7 -20 14 5 20 2 20 -9 0 -19 -36 -22 -43 -3 -3 9 -62 12 -250 12 -136
0 -247 -4 -247 -8 0 -5 -5 -5 -12 -1 -6 4 -8 3 -5 -3 14 -22 -33 -43 -96 -42
-44 0 -56 3 -42 9 16 7 13 9 -17 9 -21 1 -38 -3 -38 -9 0 -5 -11 -10 -25 -10
-14 0 -25 5 -25 10 0 6 -17 9 -37 9 -38 -1 -38 -1 -8 -9 25 -6 20 -8 -25 -8
-42 0 -49 2 -30 8 22 7 21 8 -12 9 -26 1 -38 -3 -38 -13 0 -9 -14 -14 -47 -14
-25 -1 -49 -5 -52 -10 -6 -10 -73 -18 -299 -36 -125 -10 -145 -9 -152 4 -7 12
-14 13 -42 2 -19 -6 -64 -12 -100 -12 -76 0 -98 -6 -98 -26 0 -12 20 -14 115
-9 89 4 115 2 115 -7 0 -8 5 -6 11 5 8 13 24 17 72 17 91 0 323 26 392 44 81
22 85 21 85 -15 0 -34 15 -53 45 -56 16 -2 21 4 21 22 0 32 -24 41 -35 12 -7
-17 -10 -19 -15 -7 -3 8 -4 24 -2 35 2 17 12 21 56 23 36 2 56 -1 61 -10 6
-10 11 -9 22 6 18 24 50 17 57 -14 6 -25 6 -25 12 -2 5 19 13 22 62 23 73 2
73 2 88 17 6 6 18 12 26 12 7 0 11 3 9 8 -3 4 27 7 66 7 40 -1 84 2 99 6 20 5
25 4 22 -6 -7 -18 15 -30 29 -16 8 8 7 11 -2 11 -10 0 -11 3 -2 13 12 15 68
11 90 -7 12 -9 13 -7 7 9 -6 16 -5 18 5 8 8 -8 38 -13 70 -13 36 0 60 5 63 13
4 6 4 2 2 -10 -4 -21 0 -23 42 -24 26 0 68 0 95 1 29 1 47 -3 47 -10 0 -6 4
-9 9 -6 5 3 21 -1 37 -8 36 -17 324 -33 324 -18 0 6 -10 13 -22 16 -13 2 -6 4
15 2 21 -1 37 3 37 9 0 6 -37 11 -95 12 -52 1 -95 0 -95 -3 0 -2 10 -9 23 -13
13 -6 -16 -7 -78 -4 -68 4 -104 10 -111 19 -6 8 -21 14 -33 14 -22 0 -22 15
-1 75 4 11 5 25 3 31 -3 8 13 11 48 9 51 -3 52 0 7 25 -11 7 -18 6 -20 -1z"/>
<path d="M2830 981 c0 -9 -27 -20 -70 -28 -32 -6 -36 -11 -22 -25 9 -9 12 -9
12 1 0 10 10 12 35 8 22 -4 33 -2 29 4 -3 5 5 18 18 29 13 11 17 19 11 20 -7
0 -13 -4 -13 -9z"/>
<path d="M1243 933 c-1 -27 1 -40 4 -30 2 9 8 17 12 17 4 0 8 14 9 30 0 18 -4
30 -12 30 -8 0 -13 -16 -13 -47z"/>
<path d="M2699 968 c-1 -2 -3 -13 -4 -24 -1 -12 -5 -33 -9 -48 -7 -27 -18 -30
-131 -27 -21 0 -43 -5 -47 -12 -6 -9 -10 -8 -18 3 -9 13 -10 13 -10 0 0 -10
-3 -11 -8 -4 -7 12 -56 13 -68 1 -4 -3 -16 0 -26 8 -11 7 -27 11 -34 8 -8 -3
-14 1 -14 11 0 10 -9 16 -25 16 -13 0 -29 8 -34 18 -8 13 -10 14 -11 2 0 -43
12 -60 44 -60 18 0 37 -5 42 -10 6 -6 39 -13 74 -15 88 -8 88 -15 2 -15 -40 0
-72 -3 -72 -7 0 -5 32 -6 71 -5 49 3 72 8 76 18 3 8 15 14 27 14 17 0 18 2 6
10 -13 8 -12 10 3 10 9 0 17 -4 17 -9 0 -5 16 -5 38 0 20 5 51 9 69 9 17 0 34
4 38 9 11 18 22 101 14 101 -5 0 -10 -1 -10 -2z"/>
<path d="M1384 945 c-12 -31 31 -48 66 -25 10 6 3 7 -24 3 -36 -6 -38 -5 -31
16 7 23 -2 29 -11 6z"/>
<path d="M2630 941 c0 -10 9 -21 20 -24 16 -4 20 0 20 19 0 17 -6 24 -20 24
-13 0 -20 -7 -20 -19z"/>
<path d="M561 933 c0 -11 3 -13 6 -5 2 6 15 12 28 12 13 0 26 -6 28 -12 3 -8
6 -6 6 5 1 13 -7 17 -34 17 -27 0 -35 -4 -34 -17z"/>
<path d="M643 905 c5 -50 8 -55 29 -59 7 -1 18 -5 25 -9 8 -5 11 -1 10 13 -1
11 -8 20 -18 20 -19 0 -29 20 -29 56 0 13 -5 24 -11 24 -8 0 -10 -15 -6 -45z"/>
<path d="M732 918 c2 -21 8 -33 18 -33 10 0 16 12 18 33 3 27 0 32 -18 32 -18
0 -21 -5 -18 -32z"/>
<path d="M1992 932 c4 -19 29 -23 35 -6 2 6 -6 14 -17 17 -16 4 -20 1 -18 -11z"/>
<path d="M1860 906 c0 -22 -5 -36 -12 -36 -9 0 -8 -4 2 -10 22 -14 25 -13 27
18 1 16 3 35 5 42 2 7 -3 15 -9 17 -9 3 -13 -7 -13 -31z"/>
<path d="M1896 899 c-4 -23 -4 -44 -1 -47 3 -3 5 4 5 16 0 11 5 24 10 27 12 8
13 45 1 45 -5 0 -11 -19 -15 -41z"/>
<path d="M240 911 c0 -11 -3 -28 -6 -38 -5 -14 -2 -13 13 5 18 22 33 21 33 -2
0 -6 -5 -4 -10 4 -8 13 -10 12 -10 -2 0 -10 -1 -21 -2 -24 -2 -4 6 -10 18 -14
18 -7 20 -5 16 21 -6 37 14 38 23 1 5 -25 11 -29 40 -30 27 -1 35 3 35 16 0
10 3 13 8 7 4 -5 18 -11 32 -12 14 -1 19 0 13 3 -7 3 -13 10 -13 15 0 6 8 5
20 -1 11 -6 18 -15 15 -20 -3 -5 19 -7 51 -5 55 4 89 15 46 15 -15 0 -22 6
-22 19 0 10 -7 21 -15 25 -8 3 -15 1 -15 -4 0 -6 5 -10 10 -10 6 0 5 -8 -2
-20 -15 -24 -34 -26 -42 -5 -3 9 0 15 9 15 19 0 19 8 0 26 -13 14 -15 14 -15
0 0 -12 -10 -16 -35 -16 -22 0 -43 -8 -55 -20 -23 -23 -31 -25 -26 -7 1 6 1 9
-1 5 -11 -19 -19 -5 -15 22 4 29 3 30 -37 30 -22 0 -41 5 -41 10 0 6 -4 10
-10 10 -5 0 -10 -9 -10 -19z"/>
<path d="M1026 898 c2 -29 1 -31 -10 -15 -20 26 -46 22 -46 -9 0 -24 2 -25 33
-18 17 4 42 7 54 6 12 -1 25 3 29 10 4 6 3 8 -4 4 -13 -8 -42 20 -42 40 0 8
-4 14 -8 14 -5 0 -7 -15 -6 -32z"/>
<path d="M2822 914 c-68 -10 -107 -24 -67 -24 16 0 15 -4 -9 -29 -25 -26 -26
-29 -8 -33 11 -3 27 -1 36 4 14 8 15 12 5 25 -11 12 -10 14 2 13 31 -5 49 1
49 15 0 20 44 10 81 -18 20 -14 35 -17 59 -12 27 6 34 18 12 21 -4 0 -19 4
-34 8 -39 11 -25 26 17 19 27 -4 35 -2 35 9 0 18 -67 19 -178 2z"/>
<path d="M587 909 c-9 -6 -17 -17 -17 -24 0 -8 -6 -15 -12 -16 -7 0 -3 -4 10
-9 12 -5 22 -14 22 -20 0 -5 11 -10 25 -10 16 0 25 6 25 16 0 13 -6 15 -27 9
-16 -4 -25 -3 -21 1 4 3 3 15 -2 25 -8 14 -6 18 13 21 12 2 17 6 12 10 -6 3
-18 2 -28 -3z"/>
<path d="M922 875 c-10 -21 -9 -25 4 -25 11 0 14 5 10 16 -5 12 -2 15 10 10
10 -4 14 -1 12 6 -8 22 -24 19 -36 -7z"/>
<path d="M2180 890 c0 -5 -13 -7 -29 -4 -26 5 -30 3 -28 -15 1 -17 7 -21 32
-20 23 1 25 3 8 6 -13 2 -23 9 -23 14 0 11 3 11 35 -1 45 -17 74 -20 69 -6 -3
7 -15 12 -27 12 -13 -1 -21 4 -19 12 1 6 -2 12 -8 12 -5 0 -10 -4 -10 -10z"/>
<path d="M1103 871 c-1 -10 8 -23 21 -29 18 -8 22 -7 23 9 1 11 -5 19 -13 19
-8 0 -12 5 -9 10 3 6 0 10 -7 10 -8 0 -14 -8 -15 -19z"/>
<path d="M1994 873 c7 -7 97 -5 105 3 2 2 -22 4 -54 4 -32 0 -55 -3 -51 -7z"/>
<path d="M2896 831 c-3 -4 -18 -7 -33 -5 -24 4 -25 3 -8 -5 29 -14 145 -14
145 0 0 7 -12 9 -34 5 -20 -4 -37 -2 -41 4 -8 12 -22 13 -29 1z"/>
<path d="M2614 815 c4 -12 -3 -15 -29 -15 -18 0 -37 -5 -40 -10 -4 -7 -65 -10
-170 -8 -122 2 -165 0 -174 -10 -10 -10 28 -12 201 -10 117 2 224 0 238 -5 24
-7 24 -7 3 4 -25 13 -32 35 -8 25 8 -3 94 -9 190 -12 159 -6 175 -6 175 9 0
15 -14 17 -102 18 -57 1 -119 2 -138 4 -19 1 -56 4 -82 5 -26 2 -45 7 -42 12
3 4 -2 8 -11 8 -11 0 -15 -5 -11 -15z"/>
<path d="M318 810 c-70 -3 -129 -7 -131 -10 -9 -8 266 -9 303 -1 l35 8 -40 4
c-22 2 -97 2 -167 -1z"/>
<path d="M1544 788 c1 -19 -4 -22 -24 -20 -14 2 -32 9 -40 16 -19 16 -246 13
-236 -2 3 -5 28 -6 56 -2 28 4 77 4 108 1 l57 -6 -50 -6 c-50 -6 -50 -6 20 -9
39 -2 86 -4 105 -5 19 -1 92 -3 163 -3 l127 -2 1 -37 c1 -21 3 -30 6 -20 2 9
10 17 16 17 7 0 6 4 -3 10 -13 9 -13 11 0 20 12 8 13 10 1 10 -8 0 -23 8 -34
18 -15 12 -18 13 -12 2 7 -12 6 -13 -6 -3 -17 14 -70 20 -87 10 -7 -5 -12 -3
-12 3 0 7 -7 9 -16 6 -8 -3 -22 1 -30 9 -10 9 -34 15 -63 15 -43 0 -48 -2 -47
-22z m105 -4 c2 -2 -12 -4 -32 -4 -20 0 -40 0 -44 -1 -4 0 -9 4 -11 9 -3 9 77
5 87 -4z"/>
<path d="M701 747 c-1 -16 -5 -26 -11 -22 -5 3 -10 1 -10 -4 0 -6 6 -11 13
-12 6 0 3 -4 -8 -9 -19 -8 -19 -9 3 -9 12 -1 22 2 23 7 0 4 2 14 3 22 2 8 0
24 -5 35 -7 17 -8 16 -8 -8z"/>
<path d="M757 734 c4 -11 -1 -22 -12 -30 -10 -8 -17 -14 -14 -15 2 0 13 -2 24
-4 20 -4 22 2 16 58 -1 4 -5 7 -11 7 -5 0 -7 -7 -3 -16z"/>
<path d="M1960 740 c0 -5 6 -10 13 -10 8 0 7 -4 -3 -10 -13 -9 -13 -10 0 -10
10 0 11 -3 4 -8 -9 -5 -8 -11 2 -20 12 -11 14 -6 14 28 0 29 -4 40 -15 40 -8
0 -15 -4 -15 -10z"/>
<path d="M2109 738 c-7 -22 -6 -128 1 -128 5 0 7 -8 4 -17 -5 -15 -4 -15 4 -3
6 8 8 19 4 25 -8 13 -9 65 -1 65 3 0 4 11 2 24 -4 21 -2 24 18 20 22 -4 22 -4
4 5 -20 10 -34 13 -36 9z"/>
<path d="M2829 733 c-4 -27 -4 -39 2 -48 4 -5 7 -32 6 -60 0 -27 2 -57 4 -65
2 -9 -2 -14 -9 -12 -8 1 -11 -2 -7 -8 8 -13 42 -13 50 -1 3 5 1 12 -4 15 -5 3
-9 33 -10 67 0 34 -6 68 -13 76 -16 20 8 35 32 21 10 -7 25 -8 36 -3 17 7 17
8 -6 15 -33 11 -80 12 -81 3z"/>
<path d="M2179 720 c-5 -28 -2 -33 16 -36 20 -3 20 -3 1 12 -17 12 -18 14 -3
14 9 0 17 5 17 10 0 6 -7 10 -15 10 -8 0 -16 -4 -16 -10z"/>
<path d="M558 703 c-6 -22 0 -43 12 -43 5 0 7 11 5 25 -2 26 10 34 18 13 3 -8
6 -6 6 5 1 10 -6 17 -18 17 -10 0 -21 -8 -23 -17z"/>
<path d="M1118 713 c-10 -2 -18 -11 -18 -19 0 -16 36 -19 45 -4 3 6 1 10 -5
10 -6 0 -8 5 -5 10 3 6 5 9 3 9 -2 -1 -11 -3 -20 -6z"/>
<path d="M2284 680 c2 -19 -1 -40 -6 -47 -6 -8 -4 -11 9 -9 23 4 29 45 9 71
-13 19 -14 18 -12 -15z"/>
<path d="M484 683 c-4 -14 -12 -20 -22 -17 -10 3 -6 -2 8 -10 21 -13 22 -15 6
-16 -11 0 -17 -3 -13 -6 3 -3 15 -3 26 1 16 5 20 13 17 32 -7 35 -16 41 -22
16z"/>
<path d="M2030 690 c-5 -36 -2 -82 6 -90 9 -9 8 51 0 90 -3 13 -4 13 -6 0z"/>
<path d="M2883 692 c-8 -5 -3 -11 13 -19 14 -6 24 -7 24 -1 0 5 6 6 13 3 6 -4
3 1 -7 9 -22 18 -26 19 -43 8z"/>
<path d="M270 665 c0 -25 14 -33 25 -15 12 19 22 10 17 -15 -7 -40 6 -75 28
-75 11 0 20 -4 20 -10 0 -13 -16 -13 -39 0 -16 8 -18 5 -17 -23 1 -25 6 -33
24 -35 12 -2 22 1 22 7 0 6 -9 11 -21 11 -12 0 -17 4 -14 11 5 6 22 8 47 4
l40 -7 -23 26 c-12 14 -29 26 -37 26 -12 0 -12 3 -1 17 10 11 10 14 2 9 -15
-8 -17 12 -4 33 5 7 6 21 4 31 -4 15 -10 17 -30 9 -34 -13 -41 -11 -19 6 19
15 19 15 -2 15 -17 0 -22 -6 -22 -25z"/>
<path d="M63 629 c1 -29 7 -54 13 -56 7 -2 10 6 7 22 -4 18 -1 25 10 25 24 0
27 13 10 35 -12 16 -14 16 -10 3 3 -10 2 -20 -3 -23 -6 -4 -10 3 -10 14 0 11
-4 23 -10 26 -6 4 -9 -14 -7 -46z"/>
<path d="M177 660 c-3 -10 0 -21 7 -23 8 -3 7 -9 -3 -20 -7 -10 -9 -17 -3 -17
14 0 22 -38 8 -44 -6 -2 2 -5 18 -5 19 -1 26 3 23 12 -3 6 -8 20 -12 30 -4 9
-3 17 2 17 5 0 7 16 5 35 -3 25 -9 35 -22 35 -10 0 -20 -9 -23 -20z"/>
<path d="M736 651 c-3 -5 -16 -7 -29 -5 -20 4 -21 4 -2 -5 26 -12 78 -14 71
-2 -4 5 0 12 6 14 7 3 1 6 -14 6 -15 1 -29 -3 -32 -8z"/>
<path d="M1835 651 c-6 -11 74 -25 101 -18 11 3 2 5 -19 6 -21 0 -47 6 -57 11
-12 6 -21 6 -25 1z"/>
<path d="M2902 616 c1 -24 7 -36 20 -39 10 -3 18 -1 18 4 0 5 -7 9 -16 9 -8 0
-12 5 -9 10 4 6 11 8 16 5 5 -4 9 -1 9 4 0 6 -4 11 -10 11 -5 0 -10 7 -10 15
0 8 -4 15 -10 15 -5 0 -9 -15 -8 -34z"/>
<path d="M258 618 c-4 -9 -5 -24 -3 -34 2 -11 4 -22 4 -26 2 -14 19 -9 24 6 4
11 1 13 -11 8 -15 -5 -15 -3 2 22 10 16 13 26 8 22 -6 -3 -12 -1 -14 6 -3 8
-6 7 -10 -4z"/>
<path d="M113 614 c-6 -3 -9 -16 -7 -30 3 -19 0 -24 -15 -24 -11 0 -21 -6 -23
-12 -5 -15 40 -53 50 -43 4 3 -1 11 -11 16 -23 13 -22 28 2 22 16 -4 19 -1 14
18 -5 19 -3 21 15 17 12 -4 22 -2 22 3 0 5 -9 9 -20 9 -13 0 -18 5 -14 15 6
16 6 16 -13 9z"/>
<path d="M1593 598 c-2 -5 38 -7 89 -7 97 2 89 6 -20 11 -35 2 -66 0 -69 -4z"/>
<path d="M1518 553 c17 -2 47 -2 65 0 17 2 3 4 -33 4 -36 0 -50 -2 -32 -4z"/>
<path d="M1630 540 c-50 -11 1 -11 60 -1 41 8 42 8 10 8 -19 0 -51 -3 -70 -7z"/>
<path d="M0 485 c0 -32 4 -55 11 -55 6 0 8 9 4 20 -3 11 -3 20 2 20 13 0 9 59
-4 65 -10 3 -13 -11 -13 -50z"/>
<path d="M186 517 c-3 -12 0 -25 7 -29 8 -5 3 -8 -13 -9 -24 -1 -24 -1 5 -10
20 -6 31 -5 36 3 6 9 12 8 23 -1 10 -8 16 -9 16 -3 0 6 -5 14 -11 17 -6 4 -8
13 -5 21 3 8 1 14 -5 14 -6 0 -8 3 -6 8 3 4 -5 8 -18 8 -16 1 -25 -5 -29 -19z"/>
<path d="M2913 533 c-24 -9 -13 -19 20 -18 56 2 67 5 67 15 0 10 -65 13 -87 3z"/>
<path d="M68 491 c-2 -16 -1 -37 3 -47 4 -11 8 -13 8 -6 1 6 5 12 10 12 5 0 7
-10 5 -22 -4 -21 -4 -22 5 -3 6 14 5 23 -4 30 -6 6 -10 20 -9 32 2 12 0 24 -5
27 -5 3 -11 -7 -13 -23z"/>
<path d="M2455 480 c22 -5 44 -4 50 1 5 5 -11 9 -40 8 l-50 -1 40 -8z"/>
<path d="M2535 482 c11 -11 78 -16 174 -13 87 2 55 9 -67 14 -63 3 -111 2
-107 -1z"/>
<path d="M1993 453 c-9 -3 -7 -10 5 -22 24 -25 52 -34 52 -17 0 10 -7 12 -22
8 -17 -4 -20 -2 -15 11 7 18 -2 27 -20 20z"/>
<path d="M150 438 c11 -4 20 -12 20 -17 0 -15 30 -22 65 -15 26 4 32 10 28 25
-5 16 -14 18 -69 17 -42 -2 -57 -5 -44 -10z"/>
<path d="M17 419 c-21 -12 -22 -29 -2 -29 8 0 15 5 15 10 0 6 7 10 15 10 8 0
15 5 15 10 0 13 -20 12 -43 -1z"/>
<path d="M759 418 c-37 -10 35 -8 91 2 l45 8 -56 -1 c-31 -1 -67 -5 -80 -9z"/>
<path d="M1538 423 c18 -2 45 -2 60 0 15 2 0 4 -33 4 -33 0 -45 -2 -27 -4z"/>
<path d="M2623 423 c18 -3 25 -9 20 -16 -5 -8 -2 -8 9 0 8 7 18 10 21 6 4 -3
7 -1 7 5 0 8 -16 11 -42 11 -31 -2 -35 -3 -15 -6z"/>
<path d="M2314 389 c-14 -6 -10 -8 17 -8 20 -1 52 -4 70 -7 19 -4 31 -3 27 1
-12 12 -93 22 -114 14z"/>
<path d="M2485 390 c-3 -5 -16 -10 -28 -10 -20 -1 -20 -2 -4 -11 9 -5 21 -8
26 -4 5 3 11 1 13 -5 2 -6 8 -6 18 0 13 8 12 10 -2 10 -21 0 -24 16 -5 23 9 4
9 6 0 6 -6 1 -15 -3 -18 -9z"/>
<path d="M201 379 c-36 -14 -20 -20 33 -13 31 5 43 10 34 15 -17 11 -37 10
-67 -2z"/>
<path d="M2535 380 c19 -8 143 -14 134 -6 -2 2 -38 6 -79 9 -44 3 -67 2 -55
-3z"/>
<path d="M2903 373 c10 -16 55 -25 73 -15 11 6 5 9 -21 10 -20 1 -41 5 -47 8
-6 4 -8 3 -5 -3z"/>
<path d="M2137 357 c6 -10 150 -3 161 8 4 3 -32 5 -80 4 -48 -2 -84 -7 -81
-12z"/>
<path d="M1262 355 c10 -10 109 -15 103 -5 -3 5 -29 10 -57 10 -28 0 -49 -2
-46 -5z"/>
<path d="M2335 343 c11 -3 24 -10 28 -17 5 -7 10 -7 13 -1 2 6 25 8 52 6 26
-2 44 0 40 4 -3 3 -39 8 -80 10 -40 2 -64 1 -53 -2z"/>
<path d="M2685 330 c-4 -6 7 -8 27 -5 25 4 28 3 13 -4 -15 -6 -6 -9 35 -9 30
1 75 -2 99 -6 24 -3 51 -1 60 4 13 8 10 10 -14 11 -16 1 -43 0 -58 -1 -15 -1
-33 2 -40 7 -17 13 -114 15 -122 3z"/>
<path d="M2582 312 c-7 -5 18 -8 55 -8 48 0 59 2 38 7 -43 10 -78 10 -93 1z"/>
<path d="M2595 274 c-45 -10 -39 -11 56 -6 62 3 113 1 125 -5 22 -12 65 -1 46
11 -20 12 -173 12 -227 0z"/>
<path d="M2485 270 c22 -5 44 -4 50 1 5 5 -11 9 -40 8 l-50 -1 40 -8z"/>
<path d="M2214 252 c9 -15 113 -26 139 -15 19 8 17 10 -13 10 -19 0 -57 3 -84
8 -35 6 -47 5 -42 -3z"/>
<path d="M2416 225 c-2 -7 22 -11 69 -10 40 0 71 3 69 7 -2 4 8 8 23 11 16 2
-14 3 -64 3 -55 -1 -94 -5 -97 -11z"/>
<path d="M205 221 c-3 -5 3 -12 12 -15 29 -8 153 -5 148 5 -3 4 -32 6 -65 4
-33 -2 -60 1 -60 6 0 12 -27 12 -35 0z"/>
<path d="M2607 189 c-9 -6 -26 -7 -37 -4 -11 4 -20 2 -20 -3 0 -14 89 -23 112
-11 11 6 17 13 14 17 -4 3 -12 0 -18 -6 -7 -7 -21 -12 -31 -12 -16 0 -17 3 -7
15 14 17 12 18 -13 4z"/>
<path d="M150 99 c-14 -6 -32 -8 -41 -6 -9 2 -21 -4 -28 -15 -6 -10 -16 -16
-21 -13 -6 3 -7 -1 -4 -9 8 -20 24 -21 24 -1 0 8 5 15 11 15 5 0 7 -5 4 -10
-3 -6 1 -10 9 -10 9 0 16 4 16 9 0 5 10 11 23 14 30 8 68 36 47 36 -8 0 -26
-5 -40 -10z"/>
</g>
</svg>
